<?xml version="1.0" encoding="utf-8"?>
<!-- Generator: Adobe Illustrator 16.2.1, SVG Export Plug-In . SVG Version: 6.00 Build 0)  -->
<!DOCTYPE svg PUBLIC "-//W3C//DTD SVG 1.1//EN" "http://www.w3.org/Graphics/SVG/1.1/DTD/svg11.dtd">
<svg version="1.1" id="Layer_1" xmlns="http://www.w3.org/2000/svg" xmlns:xlink="http://www.w3.org/1999/xlink" x="0px" y="0px"
	 width="364.175px" height="83px" viewBox="0 0 364.175 83" enable-background="new 0 0 364.175 83" xml:space="preserve">
<path fill="#47A141" d="M271.45,64.625h8.511c0.11,0,0.2,0.09,0.2,0.2v8.511c0,0.111-0.09,0.2-0.2,0.2h-8.511
	c-0.111,0-0.2-0.089-0.2-0.2v-8.511C271.25,64.715,271.339,64.625,271.45,64.625"/>
<path fill="#47A141" d="M262.505,73.457h8.469c0.122,0,0.221,0.1,0.221,0.222v8.469c0,0.122-0.099,0.221-0.221,0.221h-8.469
	c-0.122,0-0.222-0.099-0.222-0.221v-8.469C262.283,73.557,262.383,73.457,262.505,73.457"/>
<path fill="#47A141" d="M280.356,73.457h8.521c0.107,0,0.196,0.088,0.196,0.195v8.521c0,0.107-0.089,0.194-0.196,0.194h-8.521
	c-0.107,0-0.194-0.087-0.194-0.194v-8.521C280.162,73.545,280.249,73.457,280.356,73.457"/>
<path fill="#47A141" d="M262.45,55.714h8.579c0.092,0,0.166,0.073,0.166,0.166v8.578c0,0.093-0.074,0.166-0.166,0.166h-8.579
	c-0.093,0-0.166-0.073-0.166-0.166V55.88C262.284,55.787,262.357,55.714,262.45,55.714"/>
<path fill="#47A141" d="M280.364,55.714h8.506c0.112,0,0.203,0.091,0.203,0.202v8.507c0,0.111-0.091,0.201-0.203,0.201h-8.506
	c-0.112,0-0.203-0.09-0.203-0.201v-8.507C280.161,55.805,280.252,55.714,280.364,55.714"/>
<path fill="#47A141" d="M345.95,64.625h8.511c0.11,0,0.2,0.09,0.2,0.2v8.511c0,0.111-0.09,0.2-0.2,0.2h-8.511
	c-0.111,0-0.2-0.089-0.2-0.2v-8.511C345.75,64.715,345.839,64.625,345.95,64.625"/>
<path fill="#47A141" d="M337.005,73.457h8.469c0.122,0,0.221,0.1,0.221,0.222v8.469c0,0.122-0.099,0.221-0.221,0.221h-8.469
	c-0.122,0-0.222-0.099-0.222-0.221v-8.469C336.783,73.557,336.883,73.457,337.005,73.457"/>
<path fill="#47A141" d="M354.856,73.457h8.521c0.107,0,0.196,0.088,0.196,0.195v8.521c0,0.107-0.089,0.194-0.196,0.194h-8.521
	c-0.107,0-0.194-0.087-0.194-0.194v-8.521C354.662,73.545,354.749,73.457,354.856,73.457"/>
<path fill="#47A141" d="M336.95,55.714h8.579c0.092,0,0.166,0.073,0.166,0.166v8.578c0,0.093-0.074,0.166-0.166,0.166h-8.579
	c-0.093,0-0.166-0.073-0.166-0.166V55.88C336.784,55.787,336.857,55.714,336.95,55.714"/>
<path fill="#47A141" d="M354.864,55.714h8.506c0.112,0,0.203,0.091,0.203,0.202v8.507c0,0.111-0.091,0.201-0.203,0.201h-8.506
	c-0.112,0-0.203-0.09-0.203-0.201v-8.507C354.661,55.805,354.752,55.714,354.864,55.714"/>
<path fill="#47A141" d="M195.091,64.625h8.512c0.109,0,0.2,0.09,0.2,0.2v8.511c0,0.111-0.091,0.2-0.2,0.2h-8.512
	c-0.11,0-0.199-0.089-0.199-0.2v-8.511C194.892,64.715,194.98,64.625,195.091,64.625"/>
<path fill="#47A141" d="M186.146,73.457h8.469c0.122,0,0.222,0.1,0.222,0.222v8.469c0,0.122-0.1,0.221-0.222,0.221h-8.469
	c-0.122,0-0.221-0.099-0.221-0.221v-8.469C185.925,73.557,186.023,73.457,186.146,73.457"/>
<path fill="#47A141" d="M203.998,73.457h8.52c0.108,0,0.196,0.088,0.196,0.195v8.521c0,0.107-0.088,0.194-0.196,0.194h-8.52
	c-0.108,0-0.195-0.087-0.195-0.194v-8.521C203.803,73.545,203.89,73.457,203.998,73.457"/>
<path fill="#47A141" d="M186.091,55.714h8.579c0.092,0,0.166,0.073,0.166,0.166v8.578c0,0.093-0.074,0.166-0.166,0.166h-8.579
	c-0.092,0-0.166-0.073-0.166-0.166V55.88C185.925,55.787,185.999,55.714,186.091,55.714"/>
<path fill="#47A141" d="M204.005,55.714h8.506c0.112,0,0.203,0.091,0.203,0.202v8.507c0,0.111-0.091,0.201-0.203,0.201h-8.506
	c-0.111,0-0.203-0.09-0.203-0.201v-8.507C203.802,55.805,203.894,55.714,204.005,55.714"/>
<path fill="#FFFFFF" d="M38,12.446v-1.057V0.826C38,0.591,38.342,0,38.107,0H24.728H13.812H0.43C0.195,0,0,0.591,0,0.826v10.563
	v1.057C0,12.681,0.195,13,0.43,13h2.114c0.117,0,0.454-0.071,0.469-0.336c0.016-0.264,0.018-0.658,0.035-1.066
	C3.065,11.189,3.4,11,3.518,11h9.941C13.694,11,14,11.507,14,11.741V60h-0.911C12.476,60,12,60.934,12,61.547v2.386
	C12,64.546,12.476,65,13.089,65H14v14.195c0,0.235-0.195,0.456-0.446,0.471c-0.252,0.014-0.651,0.026-0.869,0.036
	c-0.219,0.009-0.254,0.134-0.259,0.47c-0.005,0.336-0.012,2.294-0.012,2.294c0,0.235,0.106,0.534,0.341,0.534h1.057h10.916h1.057
	C26.02,83,26,82.519,26,82.284v-2.112c0-0.175,0.079-0.462-0.284-0.47c-0.298-0.008-0.411-0.026-0.652-0.036
	C24.824,79.655,25,79.312,25,79.195V65h0.448C26.061,65,27,64.546,27,63.933v-2.386C27,60.934,26.061,60,25.448,60H25V11.741
	C25,11.507,24.845,11,25.08,11h9.711c0.117,0,0.576,0.197,0.587,0.547c0.011,0.35,0.023,0.825,0.03,1.02
	C35.416,12.763,35.522,13,35.996,13h2.111C38.342,13,38,12.681,38,12.446"/>
<path fill="#FFFFFF" d="M129,2.938V0.825C129,0.59,129.185,0,128.95,0h-11.503c-0.352,0-0.396,0.305-0.47,0.621L106.179,55h-0.117
	L95.263,0.621C95.149,0.27,94.911,0,94.793,0h-11.62C82.938,0,83,0.59,83,0.825v2.112c0,0.399-0.019,0.554,0.145,0.587
	c0.164,0.033,1.496,0.259,1.715,0.296c0.219,0.037,0.297,0.054,0.33,0.251C85.211,4.199,91.694,37,96.235,60h-0.007
	C95.615,60,95,60.935,95,61.547v2.386C95,64.546,95.615,65,96.228,65h0.916c1.978,10,3.4,17.444,3.4,17.444
	c0,0.235,0.117,0.556,0.47,0.556h10.211c0.117,0,0.352-0.32,0.47-0.556c0,0,1.421-7.444,3.399-17.444h0.801
	c0.613,0,1.105-0.454,1.105-1.067v-2.386c0-0.576-0.443-1.035-1.005-1.089c4.537-23.013,11.04-55.992,11.075-56.167
	c0.053-0.27,0.114-0.567,0.235-0.588c0.121-0.02,1.384-0.155,1.611-0.178S129,3.172,129,2.938"/>
<path fill="#FFFFFF" d="M174.852,79.584c-0.273-0.047-1.466-0.253-1.719-0.295c-0.253-0.043-0.299-0.315-0.331-0.47
	c-0.031-0.155-15.365-78.23-15.365-78.23c0-0.235-0.105-0.589-0.34-0.589h-10.33c-0.235,0-0.353,0.354-0.353,0.589
	c0,0-15.279,77.627-15.374,78.112c-0.096,0.484-0.161,0.614-0.352,0.646c-0.192,0.032-1.461,0.194-1.607,0.208
	c-0.205,0.028-0.081,0.143-0.081,0.617v2.112c0,0.234-0.192,0.716,0.043,0.716h14.437c0.235,0,0.52-0.481,0.52-0.716v-2.112
	c0-0.43-0.141-0.565-0.319-0.588c-0.177-0.021-1.251-0.153-1.448-0.178c-0.198-0.025-0.3-0.292-0.256-0.587s1.514-8.546,1.514-8.546
	c0-0.235,0.107-0.273,0.342-0.273H150v0.277c0,0.612,0.126,0.723,0.739,0.723h2.386c0.613,0,0.875-0.11,0.875-0.723V70h6.031
	c0.235,0,0.352,0.038,0.352,0.273c0,0,1.477,8.316,1.525,8.586c0.047,0.269-0.021,0.534-0.235,0.566
	c-0.214,0.032-1.186,0.141-1.422,0.168c-0.236,0.029-0.251,0.343-0.251,0.578v2.112c0,0.234,0.149,0.716,0.383,0.716h14.437
	c0.235,0,0.18-0.481,0.18-0.716v-2.112C175,80.054,175.124,79.632,174.852,79.584 M158.151,61H154v-1.327
	c0-0.613-0.262-0.673-0.875-0.673h-2.386c-0.613,0-0.739,0.06-0.739,0.673V61h-4.288c-0.235,0-0.353-0.215-0.353-0.333l6.455-32.446
	c0.118-0.115,0.118-0.139,0.235-0.024l6.455,32.483C158.503,60.797,158.387,61,158.151,61"/>
<path fill="#FFFFFF" d="M83.804,79.584c-0.272-0.047-1.489-0.253-1.742-0.295c-0.253-0.043-0.311-0.315-0.343-0.47
	c-0.032-0.155-15.372-78.23-15.372-78.23c0-0.235-0.11-0.589-0.345-0.589h-10.33c-0.235,0-0.353,0.354-0.353,0.589
	c0,0-15.279,77.627-15.374,78.112c-0.096,0.484-0.161,0.614-0.352,0.646c-0.192,0.032-1.413,0.194-1.56,0.208
	C37.829,79.583,38,79.697,38,80.172v2.112C38,82.519,37.713,83,37.948,83h14.437C52.62,83,53,82.519,53,82.284v-2.112
	c0-0.43-0.188-0.565-0.366-0.588c-0.178-0.021-1.275-0.153-1.473-0.178c-0.197-0.025-0.312-0.292-0.268-0.587
	s1.509-8.546,1.509-8.546c0-0.235,0.101-0.273,0.336-0.273H58v0.277C58,70.89,58.498,71,59.111,71h2.386
	C62.11,71,63,70.89,63,70.277V70h5.936c0.235,0,0.352,0.038,0.352,0.273c0,0,1.477,8.316,1.525,8.586
	c0.047,0.269-0.021,0.534-0.235,0.566s-1.139,0.141-1.375,0.168C68.967,79.623,69,79.937,69,80.172v2.112
	C69,82.519,69.054,83,69.288,83h14.437C83.96,83,84,82.519,84,82.284v-2.112C84,80.054,84.076,79.632,83.804,79.584 M67.057,61H63
	v-1.327C63,59.06,62.11,59,61.497,59h-2.386C58.498,59,58,59.06,58,59.673V61h-3.383c-0.235,0-0.353-0.215-0.353-0.333l6.455-32.446
	c0.118-0.115,0.118-0.139,0.235-0.024l6.455,32.483C67.409,60.797,67.292,61,67.057,61"/>
<path fill="#FFFFFF" d="M191.064,25.437c-0.114-0.171-0.456-0.171-0.456,0.114v14.415c0,0.627-0.512,1.139-1.139,1.139h-3.134
	c-0.626,0-1.14-0.512-1.14-1.139V2.361c0-0.627,0.514-1.14,1.14-1.14h3.134c0.627,0,1.139,0.513,1.139,1.14v13.674
	c0,0.285,0.342,0.285,0.456,0.114l11.054-14.358c0.171-0.228,0.399-0.57,1.253-0.57h3.135c1.082,0,1.595,1.196,0.968,2.051
	l-12.99,16.581c-0.342,0.455-0.513,0.854-0.057,1.367l14.586,17.777c0.627,0.74,0.228,2.107-1.026,2.107h-3.589
	c-0.854,0-1.026-0.341-1.254-0.569L191.064,25.437z"/>
<path fill="#FFFFFF" d="M219.043,39.965c0,0.627-0.513,1.14-1.14,1.14h-3.134c-0.627,0-1.14-0.513-1.14-1.14V2.361
	c0-0.627,0.513-1.14,1.14-1.14h3.134c0.627,0,1.14,0.513,1.14,1.14V39.965z"/>
<path fill="#FFFFFF" d="M237.562,7.204v32.761c0,0.627-0.513,1.14-1.14,1.14h-3.134c-0.627,0-1.14-0.513-1.14-1.14V7.204
	c0-0.342-0.228-0.57-0.569-0.57H224c-0.626,0-1.139-0.513-1.139-1.139V2.361c0-0.627,0.513-1.139,1.139-1.139h21.651
	c0.627,0,1.14,0.512,1.14,1.139v3.134c0,0.626-0.513,1.139-1.14,1.139h-7.52C237.789,6.634,237.562,6.862,237.562,7.204"/>
<path fill="#FFFFFF" d="M275.567,29.71c0,6.324-5.299,11.851-12.82,11.851c-6.837,0-11.907-4.501-12.819-11.851
	c-0.569-4.615-0.569-12.535,0-17.093c0.74-6.211,5.299-11.851,12.819-11.851c6.838,0,12.82,4.444,12.82,11.851v0.798
	c0,0.626-0.513,1.139-1.14,1.139h-3.134c-0.627,0-1.14-0.513-1.14-1.139v-0.798c0-3.419-2.906-6.382-7.407-6.438
	c-3.703,0-6.894,2.279-7.406,6.438c-0.569,4.672-0.569,12.421,0,17.093c0.456,3.304,2.963,6.438,7.406,6.438
	c3.818,0,7.407-2.279,7.407-6.438v-0.798c0-0.627,0.513-1.139,1.14-1.139h3.134c0.627,0,1.14,0.512,1.14,1.139V29.71z"/>
<path fill="#FFFFFF" d="M301.78,1.222h3.134c0.626,0,1.14,0.513,1.14,1.14v37.604c0,0.627-0.514,1.139-1.14,1.139h-3.134
	c-0.627,0-1.14-0.512-1.14-1.139V24.013c0-0.342-0.229-0.57-0.569-0.57h-12.535c-0.342,0-0.57,0.228-0.57,0.57v15.953
	c0,0.627-0.513,1.139-1.14,1.139h-3.133c-0.627,0-1.14-0.512-1.14-1.139V2.362c0-0.627,0.513-1.14,1.14-1.14h3.133
	c0.627,0,1.14,0.513,1.14,1.14v15.098c0,0.342,0.229,0.57,0.57,0.57h12.535c0.341,0,0.569-0.228,0.569-0.57V2.362
	C300.641,1.735,301.153,1.222,301.78,1.222"/>
<path fill="#FFFFFF" d="M318.877,35.123c0,0.342,0.228,0.57,0.569,0.57h13.674c0.627,0,1.141,0.513,1.141,1.139v3.134
	c0,0.627-0.514,1.139-1.141,1.139h-18.517c-0.627,0-1.14-0.512-1.14-1.139V2.362c0-0.627,0.513-1.14,1.14-1.14h18.403
	c0.627,0,1.14,0.513,1.14,1.14v3.133c0,0.627-0.513,1.14-1.14,1.14h-13.561c-0.342,0-0.569,0.228-0.569,0.57v10.255
	c0,0.342,0.228,0.57,0.569,0.57h12.934c0.627,0,1.14,0.513,1.14,1.139v3.134c0,0.627-0.513,1.14-1.14,1.14h-12.934
	c-0.342,0-0.569,0.228-0.569,0.57V35.123z"/>
<path fill="#FFFFFF" d="M358.307,41.105c-0.627,0-0.912-0.171-1.197-0.969l-11.224-28.203c-0.114-0.228-0.456-0.171-0.456,0.114
	v27.918c0,0.627-0.513,1.14-1.14,1.14h-2.905c-0.627,0-1.141-0.513-1.141-1.14V2.361c0-0.627,0.514-1.139,1.141-1.139h4.729
	c0.627,0,0.912,0.171,1.196,0.968l11.225,28.089c0.114,0.228,0.456,0.171,0.456-0.113V2.361c0-0.627,0.513-1.139,1.14-1.139h2.905
	c0.626,0,1.14,0.512,1.14,1.139v37.604c0,0.627-0.514,1.14-1.14,1.14H358.307z"/>
<path fill="#FFFFFF" d="M310.225,71.998h-4.206c-0.374,0-0.609-0.282-0.609-0.608v-3.411c0-0.326,0.235-0.609,0.609-0.609h4.206
	v-4.203c0-0.328,0.23-0.562,0.56-0.562h3.411c0.326,0,0.606,0.234,0.606,0.562v4.203h4.255c0.325,0,0.56,0.283,0.56,0.609v3.411
	c0,0.326-0.234,0.608-0.56,0.608h-4.255V76.2c0,0.375-0.28,0.61-0.606,0.61h-3.411c-0.329,0-0.56-0.235-0.56-0.61V71.998z"/>
<path fill="#FFFFFF" d="M235.225,71.998h-4.206c-0.374,0-0.609-0.282-0.609-0.608v-3.411c0-0.326,0.235-0.609,0.609-0.609h4.206
	v-4.203c0-0.328,0.23-0.562,0.56-0.562h3.411c0.326,0,0.606,0.234,0.606,0.562v4.203h4.255c0.324,0,0.56,0.283,0.56,0.609v3.411
	c0,0.326-0.235,0.608-0.56,0.608h-4.255V76.2c0,0.375-0.28,0.61-0.606,0.61h-3.411c-0.329,0-0.56-0.235-0.56-0.61V71.998z"/>
<rect fill="none" width="364.175" height="83"/>
</svg>
